<?xml version="1.0" encoding="UTF-8"?>
<svg id="Layer_1" data-name="Layer 1" xmlns="http://www.w3.org/2000/svg" viewBox="0 0 1125 1125">
  <defs>
    <style>
      .cls-1 {
        fill: #fff;
      }
    </style>
  </defs>
  <path class="cls-1" d="M1125,0v1125H0V0h1125ZM344.77,480.43v-11.62l-1.12-1.12h-70.45l-1.12,1.12v97.44l1.12,1.12h70.45l1.12-1.12v-11.62h-57.34l-1.12-1.12v-30.35h46.84c2.25-2.85.8-7.91,1.01-11.5l-1.01-1.24h-45.72l-1.12-1.12v-27.73l1.12-1.12h57.34ZM377.75,467.69h-13.12l-1.12,1.12v97.44l1.12,1.12h69.33v-12.74h-55.09l-1.12-1.12v-85.82ZM449.7,567.37h13.12l1.12-1.12v-97.44l-1.12-1.12h-13.12v99.68ZM558.38,467.69h-78.32l-1.12,1.12v11.62h31.85l1.12,1.12v85.82h14.24v-86.94h32.23v-12.74ZM646.07,467.69h-71.95v99.68h71.95v-12.74h-57.71v-31.48h47.22v-12.74h-47.22v-29.98h57.71v-12.74ZM173.88,694.79c-14.32-16.65-18.56-39.56-17.27-61.12.16-2.59.83-11.67,3.01-12.72,1.83-.88,8.74-.8,11.42-1.32,11.05-2.12,22.45-6.52,30.41-14.56l-.56-125.8c-2.07-4.43-5.12-7.3-10.15-7.84l-74.08.13-32.42,47.78c-4.91,5.78-9.09,6.17-16.21,4.35-12.5-3.2-25.29-11.24-38.07-14.03v173.51c0,4.36,6.36,11.62,10.87,11.62h133.04ZM106.43,475.19l-71.2,29.96,34.61,12.99c2.03.55,4.82.94,6.83.35,3.7-1.09,25.65-37.84,29.76-43.3ZM405.33,596.83c-63.16,5.92-60.13,105.42,10.3,101.74,66.97-3.5,62.88-108.6-10.3-101.74ZM789.82,596.82c-63.39,6.51-59.42,105.39,10.31,101.75,33.75-1.76,52.85-30.82,46.59-63.15-5.18-26.74-30.78-41.29-56.89-38.6ZM1027.41,596.83c-60.85,5.7-59.99,96.93.54,101.7,76.74,6.04,75.8-108.85-.54-101.7ZM286.31,660.31h32.6c24.65,0,37.57-22.71,29.22-44.96-3.99-10.64-16.51-18-27.72-18h-47.22l-1.12,1.12v97.44l1.12,1.12h13.12v-36.73ZM561.38,697.04l-24.74-38.58c8.17-3.36,15.99-6.99,19.62-15.62,8.83-20.93-2.34-45.48-26.74-45.48h-49.09v99.68h14.24v-37.1l1.12-1.12h24.73l24.73,38.22h16.11ZM649.82,597.35h-79.45v12.74h31.85l1.12,1.12v85.82h13.12l1.12-1.12v-85.82h32.23v-12.74ZM737.51,597.35h-71.95v99.68h13.12l1.12-1.12v-41.6h47.22v-12.74h-47.22v-31.48h57.71v-12.74ZM879.16,597.35h-14.24v98.56l1.12,1.12h69.33v-12.74h-55.09l-1.12-1.12v-85.82ZM951.12,697.04h13.12l1.12-1.12v-97.44l-1.12-1.12h-13.12v99.68ZM163.43,625.87c-4.59,28.46,1.55,61.73,29.44,75.79,2.01,1.01,10.26,4.41,12.06,4.33,5.09-.24,17.68-7.76,21.78-11.22,11.97-10.11,18.92-27.56,19.92-43.04.23-3.62.51-24.17-1.49-25.56-14.98-.53-28.39-6.41-40.26-15.17-1.33-.13-7.98,5.11-9.99,6.23-9.47,5.29-20.53,8.88-31.46,8.64Z"/>
  <path d="M173.88,694.79H40.85c-4.51,0-10.87-7.26-10.87-11.62v-173.51c12.78,2.79,25.57,10.82,38.07,14.03,7.12,1.82,11.3,1.43,16.21-4.35l32.42-47.78,74.08-.13c5.03.54,8.08,3.4,10.15,7.84l.56,125.8c-7.95,8.04-19.35,12.44-30.41,14.56-2.69.52-9.59.44-11.42,1.32-2.18,1.05-2.86,10.14-3.01,12.72-1.29,21.55,2.95,44.46,17.27,61.12ZM183.63,543.39v-22.86c0-.13-1.16-1.32-1.51-1.49l-84.89-.22c-1.48.39-2.49.85-2.79,2.46-.59,3.19-.39,15.2-.04,18.78.24,2.49.39,3.97,3.38,4.11,26.56-1.65,55.5,2.07,81.77,0,1.44-.11,2.71-.44,4.09-.79ZM53.59,567.37c-2.04.62-2.52,5.25-.75,5.25h129.66c1.53,0,1.53-5.25,0-5.25H53.59ZM52.84,596.6c-1.82.75-1.3,5.25,0,5.25h129.66c1.53,0,1.53-5.25,0-5.25H52.84ZM53.59,625.08l-1.91,3.33c-.05.78,1.54,2.66,1.91,2.66h89.94c.55,0,2.31-2.38,1.91-3.33.05-.78-1.54-2.66-1.91-2.66H53.59ZM52.84,654.31c-1.82.75-1.3,5.25,0,5.25h88.44c2.18,0,2.18-5.25,0-5.25H52.84Z"/>
  <path d="M163.43,625.87c10.92.23,21.99-3.36,31.46-8.64,2.01-1.12,8.65-6.36,9.99-6.23,11.87,8.76,25.28,14.64,40.26,15.17,2,1.39,1.72,21.94,1.49,25.56-1,15.48-7.94,32.93-19.92,43.04-4.1,3.46-16.68,10.98-21.78,11.22-1.8.08-10.05-3.31-12.06-4.33-27.89-14.06-34.03-47.33-29.44-75.79ZM187.09,677.09c3.96,3.38,7.25,5.7,12.65,1.96,10.03-6.95,20.61-22.86,30.69-30.76,5.12-7.52-3.16-16.42-11.27-12.76l-24.78,23.99c-1.65.29-5.67-8.24-13.39-2.94-9.78,6.71.36,15.63,6.09,20.52Z"/>
  <path d="M561.38,697.04h-16.11l-24.73-38.22h-24.73l-1.12,1.12v37.1h-14.24v-99.68h49.09c24.4,0,35.57,24.55,26.74,45.48-3.64,8.63-11.46,12.27-19.62,15.62l24.74,38.58ZM494.67,646.07h35.6c3.2,0,8.79-3.82,10.85-6.39,4.8-6.02,4.72-18.32-.7-24-2.13-2.23-9.54-5.59-12.4-5.59h-33.35v35.98Z"/>
  <path d="M1027.41,596.83c76.34-7.15,77.28,107.74.54,101.7-60.53-4.77-61.39-95.99-.54-101.7ZM1028.15,609.55c-42.52,4.89-41.79,72.3.55,76.23,56.64,5.26,55.53-82.68-.55-76.23Z"/>
  <path d="M789.82,596.82c26.12-2.68,51.71,11.86,56.89,38.6,6.27,32.32-12.84,61.38-46.59,63.15-69.73,3.64-73.7-95.23-10.31-101.75ZM790.56,609.55c-42.12,5.08-41.32,72.88,1.26,76.27,57.04,4.54,54.71-83.02-1.26-76.27Z"/>
  <path d="M405.33,596.83c73.19-6.86,77.27,98.25,10.3,101.74-70.44,3.68-73.47-95.83-10.3-101.74ZM406.06,609.55c-42.6,5.16-41.26,72.34.55,76.23,57.3,5.33,55.43-83.01-.55-76.23Z"/>
  <path d="M344.77,480.43h-57.34l-1.12,1.12v27.73l1.12,1.12h45.72l1.01,1.24c-.2,3.59,1.25,8.65-1.01,11.5h-46.84v30.35l1.12,1.12h57.34v11.62l-1.12,1.12h-70.45l-1.12-1.12v-97.44l1.12-1.12h70.45l1.12,1.12v11.62Z"/>
  <polygon points="646.07 467.69 646.07 480.43 588.36 480.43 588.36 510.41 635.58 510.41 635.58 523.15 588.36 523.15 588.36 554.63 646.07 554.63 646.07 567.37 574.12 567.37 574.12 467.69 646.07 467.69"/>
  <path d="M286.31,660.31v36.73h-13.12l-1.12-1.12v-97.44l1.12-1.12h47.22c11.22,0,23.73,7.36,27.72,18,8.35,22.25-4.58,44.96-29.22,44.96h-32.6ZM287.43,610.09l-1.12,1.12v35.23l1.12,1.12h29.23c1.36,0,6.98-1.35,8.6-1.9,13.41-4.49,14.33-26.73,2.2-32.88-1.32-.67-7.43-2.7-8.54-2.7h-31.48Z"/>
  <polygon points="737.51 597.35 737.51 610.09 679.8 610.09 679.8 641.57 727.02 641.57 727.02 654.31 679.8 654.31 679.8 695.91 678.67 697.04 665.56 697.04 665.56 597.35 737.51 597.35"/>
  <polygon points="558.38 467.69 558.38 480.43 526.15 480.43 526.15 567.37 511.91 567.37 511.91 481.55 510.78 480.43 478.93 480.43 478.93 468.81 480.05 467.69 558.38 467.69"/>
  <polygon points="649.82 597.35 649.82 610.09 617.59 610.09 617.59 695.91 616.46 697.04 603.35 697.04 603.35 611.22 602.22 610.09 570.37 610.09 570.37 597.35 649.82 597.35"/>
  <polygon points="879.16 597.35 879.16 683.17 880.29 684.29 935.38 684.29 935.38 697.04 866.05 697.04 864.92 695.91 864.92 597.35 879.16 597.35"/>
  <polygon points="377.75 467.69 377.75 553.51 378.87 554.63 433.96 554.63 433.96 567.37 364.63 567.37 363.51 566.25 363.51 468.81 364.63 467.69 377.75 467.69"/>
  <polygon points="449.7 567.37 449.7 467.69 462.82 467.69 463.94 468.81 463.94 566.25 462.82 567.37 449.7 567.37"/>
  <polygon points="951.12 697.04 951.12 597.35 964.23 597.35 965.36 598.48 965.36 695.91 964.23 697.04 951.12 697.04"/>
  <path d="M106.43,475.19c-4.11,5.47-26.06,42.22-29.76,43.3-2.01.59-4.8.2-6.83-.35l-34.61-12.99,71.2-29.96Z"/>
  <path class="cls-1" d="M183.63,543.39c-1.37.35-2.64.67-4.09.79-26.27,2.07-55.21-1.65-81.77,0-2.99-.15-3.14-1.62-3.38-4.11-.35-3.58-.55-15.59.04-18.78.3-1.6,1.31-2.06,2.79-2.46l84.89.22c.35.17,1.51,1.36,1.51,1.49v22.86ZM178.38,524.65h-77.95v13.49h77.95v-13.49Z"/>
  <path class="cls-1" d="M52.84,596.6h129.66c1.53,0,1.53,5.25,0,5.25H52.84c-1.3,0-1.82-4.5,0-5.25Z"/>
  <path class="cls-1" d="M53.59,567.37h128.91c1.53,0,1.53,5.25,0,5.25H52.84c-1.77,0-1.29-4.63.75-5.25Z"/>
  <path class="cls-1" d="M53.59,625.08h89.94c.37,0,1.96,1.88,1.91,2.66.4.96-1.36,3.33-1.91,3.33H53.59c-.37,0-1.96-1.88-1.91-2.66l1.91-3.33Z"/>
  <path class="cls-1" d="M52.84,654.31h88.44c2.18,0,2.18,5.25,0,5.25H52.84c-1.3,0-1.82-4.5,0-5.25Z"/>
  <path class="cls-1" d="M187.09,677.09c-5.73-4.9-15.87-13.81-6.09-20.52,7.72-5.3,11.74,3.23,13.39,2.94l24.78-23.99c8.1-3.66,16.39,5.24,11.27,12.76-10.09,7.9-20.66,23.82-30.69,30.76-5.4,3.74-8.69,1.42-12.65-1.96ZM189.36,662.82c-3.67-3.14-7.97-1.25-6.11,2.72.56,1.2,9.38,9.48,10.67,9.66l1.67-.26,30.05-29.97c2.24-3.26-2.33-5.47-4.96-3.44l-25.09,25.17c-3.28,1.48-4.66-2.54-6.23-3.88Z"/>
  <path class="cls-1" d="M494.67,646.07v-35.98h33.35c2.86,0,10.27,3.36,12.4,5.59,5.41,5.67,5.5,17.98.7,24-2.05,2.57-7.64,6.39-10.85,6.39h-35.6Z"/>
  <path class="cls-1" d="M1028.15,609.55c56.08-6.45,57.2,81.49.55,76.23-42.35-3.93-43.08-71.34-.55-76.23Z"/>
  <path class="cls-1" d="M790.56,609.55c55.97-6.75,58.31,80.81,1.26,76.27-42.58-3.39-43.38-71.19-1.26-76.27Z"/>
  <path class="cls-1" d="M406.06,609.55c55.98-6.78,57.85,81.56.55,76.23-41.81-3.89-43.15-71.07-.55-76.23Z"/>
  <path class="cls-1" d="M287.43,610.09h31.48c1.12,0,7.22,2.03,8.54,2.7,12.14,6.15,11.22,28.39-2.2,32.88-1.62.54-7.23,1.9-8.6,1.9h-29.23l-1.12-1.12v-35.23l1.12-1.12Z"/>
  <rect x="100.43" y="524.65" width="77.95" height="13.49"/>
  <path d="M189.36,662.82c1.57,1.34,2.95,5.36,6.23,3.88l25.09-25.17c2.63-2.02,7.19.19,4.96,3.44l-30.05,29.97-1.67.26c-1.29-.19-10.11-8.46-10.67-9.66-1.86-3.97,2.44-5.86,6.11-2.72Z"/>
</svg>