<?xml version="1.0" encoding="UTF-8" standalone="no"?>
<svg xmlns="http://www.w3.org/2000/svg" width="1500" height="1500" viewBox="0 0 1500 1500">
  <path d="M 68 626 L 70 628 L 188 628 L 191 625 L 191 623 L 187 619 L 71 619 L 68 622 Z M 301 643 L 299 645 L 294 644 L 260 610 L 257 610 L 249 618 L 246 618 L 244 616 L 245 612 L 256 601 L 258 600 L 261 601 L 300 640 Z M 305 652 L 310 644 L 309 637 L 264 592 L 257 591 L 252 593 L 237 608 L 235 612 L 235 618 L 238 623 L 244 627 L 252 627 L 259 621 L 291 653 L 298 655 Z M 68 665 L 70 667 L 191 667 L 194 664 L 194 661 L 191 658 L 71 658 L 68 661 Z M 272 685 L 263 678 L 247 670 L 234 666 L 218 664 L 217 660 L 217 627 L 218 626 L 220 612 L 224 600 L 234 583 L 248 570 L 261 563 L 273 559 L 284 563 L 298 571 L 308 580 L 316 591 L 323 606 L 327 622 L 327 628 L 328 629 L 328 658 L 327 659 L 327 664 L 311 666 L 298 670 L 287 675 Z M 659 686 L 660 687 L 705 687 L 715 684 L 723 677 L 726 671 L 727 658 L 724 649 L 719 643 L 708 638 L 701 638 L 700 637 L 660 637 L 659 638 Z M 381 686 L 382 687 L 427 687 L 438 683 L 445 676 L 448 668 L 448 655 L 445 647 L 436 639 L 426 636 L 382 636 L 381 637 Z M 1369 688 L 1388 688 L 1389 687 L 1393 687 L 1403 683 L 1409 679 L 1421 666 L 1426 656 L 1428 648 L 1428 643 L 1429 642 L 1428 624 L 1425 614 L 1420 605 L 1413 597 L 1405 591 L 1389 585 L 1369 585 L 1354 590 L 1348 594 L 1338 604 L 1332 615 L 1329 625 L 1329 634 L 1328 635 L 1329 648 L 1332 658 L 1336 666 L 1351 681 L 1359 685 Z M 1048 687 L 1052 687 L 1053 688 L 1072 688 L 1088 682 L 1094 678 L 1104 667 L 1111 651 L 1112 647 L 1112 626 L 1106 609 L 1102 603 L 1090 592 L 1077 586 L 1073 586 L 1072 585 L 1052 585 L 1051 586 L 1047 586 L 1034 592 L 1023 602 L 1014 619 L 1013 628 L 1012 629 L 1012 644 L 1015 657 L 1021 668 L 1029 677 L 1036 682 Z M 539 688 L 558 688 L 559 687 L 563 687 L 578 680 L 586 673 L 592 665 L 595 659 L 599 645 L 599 628 L 595 614 L 592 608 L 587 601 L 578 593 L 569 588 L 559 585 L 539 585 L 531 587 L 521 592 L 509 603 L 505 609 L 501 618 L 499 626 L 499 647 L 505 664 L 509 670 L 521 681 L 529 685 Z M 1269 703 L 1269 571 L 1286 571 L 1286 703 Z M 1155 703 L 1154 702 L 1154 572 L 1155 571 L 1246 571 L 1247 572 L 1247 586 L 1246 587 L 1173 587 L 1172 588 L 1172 703 Z M 982 703 L 888 703 L 888 571 L 905 571 L 905 626 L 907 628 L 968 628 L 969 629 L 969 643 L 968 644 L 906 644 L 905 645 L 905 685 L 907 687 L 982 687 L 983 688 L 983 702 Z M 762 703 L 761 702 L 761 687 L 804 687 L 805 686 L 805 572 L 806 571 L 822 571 L 823 572 L 822 573 L 822 685 L 824 687 L 865 687 L 866 688 L 866 702 L 865 703 Z M 641 703 L 641 572 L 642 571 L 658 571 L 659 572 L 659 621 L 660 622 L 694 622 L 698 618 L 725 574 L 728 571 L 748 571 L 747 574 L 744 577 L 743 580 L 715 621 L 716 624 L 722 625 L 731 630 L 738 637 L 743 647 L 744 660 L 745 661 L 744 673 L 742 680 L 737 689 L 727 697 L 720 700 L 712 701 L 711 702 L 704 702 L 703 703 Z M 450 696 L 441 700 L 433 702 L 426 702 L 425 703 L 364 703 L 364 571 L 381 571 L 381 619 L 384 621 L 431 621 L 446 625 L 454 630 L 458 634 L 462 640 L 465 648 L 465 652 L 466 653 L 466 671 L 461 685 Z M 1364 703 L 1348 698 L 1339 693 L 1329 685 L 1321 675 L 1315 663 L 1311 647 L 1311 626 L 1312 625 L 1312 620 L 1317 605 L 1323 595 L 1331 586 L 1342 578 L 1350 574 L 1364 570 L 1370 570 L 1371 569 L 1394 570 L 1407 574 L 1420 581 L 1431 591 L 1438 601 L 1442 609 L 1446 623 L 1446 630 L 1447 631 L 1446 650 L 1442 664 L 1438 672 L 1430 683 L 1418 693 L 1409 698 L 1393 703 L 1387 703 L 1386 704 Z M 1055 704 L 1034 699 L 1021 692 L 1009 681 L 1004 674 L 996 655 L 995 645 L 994 644 L 994 628 L 995 627 L 995 622 L 997 614 L 1002 602 L 1008 593 L 1017 584 L 1029 576 L 1043 571 L 1053 570 L 1054 569 L 1070 569 L 1071 570 L 1077 570 L 1085 572 L 1097 577 L 1106 583 L 1117 594 L 1127 613 L 1129 621 L 1129 627 L 1130 628 L 1130 645 L 1129 646 L 1128 656 L 1122 671 L 1116 680 L 1107 689 L 1100 694 L 1084 701 L 1076 703 L 1070 703 L 1069 704 Z M 542 704 L 541 703 L 530 702 L 516 697 L 505 690 L 495 680 L 490 673 L 483 656 L 482 647 L 481 646 L 481 627 L 482 626 L 483 616 L 490 600 L 494 594 L 505 583 L 514 577 L 526 572 L 534 570 L 540 570 L 541 569 L 557 569 L 558 570 L 568 571 L 587 579 L 594 584 L 602 592 L 610 604 L 615 618 L 616 628 L 617 629 L 617 644 L 612 664 L 605 677 L 595 688 L 585 695 L 571 701 L 563 703 L 557 703 L 556 704 Z M 68 703 L 71 706 L 242 706 L 245 703 L 245 699 L 243 697 L 70 697 L 68 699 Z M 68 742 L 70 744 L 243 744 L 245 742 L 245 738 L 242 735 L 71 735 L 68 738 Z M 134 800 L 134 783 L 237 783 L 237 800 Z M 125 806 L 128 809 L 242 809 L 246 805 L 246 778 L 243 774 L 128 774 L 125 777 Z M 141 866 L 48 827 L 73 817 L 78 816 L 86 812 L 95 809 L 101 809 L 106 813 L 109 819 L 112 822 Z M 262 868 L 256 871 L 155 871 L 114 809 L 107 802 L 102 800 L 93 800 L 41 820 L 41 585 L 43 581 L 50 575 L 54 575 L 55 574 L 231 574 L 221 587 L 212 608 L 210 616 L 210 621 L 209 622 L 209 628 L 208 629 L 208 661 L 209 662 L 209 668 L 212 673 L 227 674 L 245 679 L 259 686 L 268 693 L 268 858 L 266 863 Z M 766 876 L 766 744 L 861 744 L 861 760 L 785 760 L 783 762 L 783 801 L 785 803 L 846 803 L 847 804 L 847 818 L 846 819 L 785 819 L 783 821 L 783 858 L 785 860 L 861 860 L 861 876 Z M 640 876 L 639 875 L 639 861 L 640 860 L 682 860 L 683 859 L 683 745 L 684 744 L 700 744 L 701 745 L 701 859 L 702 860 L 744 860 L 744 875 L 743 876 Z M 600 876 L 600 744 L 617 744 L 617 876 Z M 486 876 L 485 875 L 486 874 L 486 746 L 485 745 L 486 744 L 577 744 L 578 745 L 578 759 L 577 760 L 504 760 L 503 761 L 503 876 Z M 364 876 L 364 744 L 458 744 L 459 745 L 458 746 L 458 758 L 459 759 L 458 760 L 382 760 L 381 761 L 381 802 L 382 803 L 444 803 L 444 819 L 382 819 L 381 820 L 381 859 L 382 860 L 458 860 L 459 861 L 458 862 L 458 874 L 459 875 L 458 876 Z" fill="black" fill-rule="evenodd" />
</svg>