<?xml version="1.0" encoding="UTF-8"?>
<svg id="Layer_1" data-name="Layer 1" xmlns="http://www.w3.org/2000/svg" viewBox="0 0 703.92 235.4">
  <path d="M142.55,42.59c-2.87,2.17-5.24,5.12-7.49,7.89-17.92,22.1-34.21,45.5-50.26,68.99,4.32,1.2,8.89-1.76,13.2-1.79,8.92-.07,17.95,6.99,22.2,14.38,2.45,4.26,2.17,9.49,1.17,14.24-.34,1.61-10.17,17.4-11.83,19.67-1.23,1.69-6.41,6.53-8.25,8.25-18.23,17.16-41.54,30.4-66.99,31.8-4.07,5.25-10.57,26.29-15.71,28.75-.97.46-2,.68-3.08.63-.45-.09-1.76-3.05-1.84-3.61-.54-4.26,12.28-23.97,11.85-26.05-5.84-2.26-10.84-4.12-15.4-8.62C3.58,190.64.38,182.72.02,173.49c-.9-23.35,22.93-45.65,37.47-61.64-6.77-7.86-6.1-14.34-2.56-23.51,6.02-15.57,21.3-33.68,39.73-32.26,4.27.33,8.06,2.93,12.38,3,1.45-6.45,5.38-27.89,14.64-16.52,4.64,5.7,1.32,13.52-1.11,19.92-3.06,8.08-9.46,17.98-14.13,24.87-2.41,3.56-5.29,8.94-9.9,9.21-1.53-1.6,5.26-23.94,6.71-27.38l-2.58-1.17c-4.38,1.64-9.18,1.8-13.42,3.9-10.37,5.13-21.46,19.24-22.96,30.66,6.76.76,11.1-5.07,17.2-6.42,2.04-.45,3.82-.08,5.63-.37,2.6-.42,4.6-2.76,7.8-.6,1.38,2.2-2.32,9.38-4.01,11.15-2.87,3-10.93,6.64-14.99,9.76-10.74,8.29-32.48,31.12-38.03,42.97-4.16,8.88-10.2,27.08,1.98,32.03,2.36.96,10.13,2.96,12.08,1.52,1.21-.89,6.05-9.49,7.21-11.54,7.83-13.79,15.14-28.76,24.59-41.41,1.4-1.87,5.03-2.82,4.51-6.35-2.69,1.58-4.9.29-6.73-1.88.01-1.63,11.87-6.24,14.25-8.99,2.7-3.12,12.38-16.88,14.15-20.35,1.62-3.18-.59-4.62,3.88-5.86,13.74-20.83,28.7-40.48,44.95-59.31l-6-.37v-2.24s8.26-.37,8.26-.37c6.5-8.02,14.51-17.41,22.49-24.01,4.9-4.06,20.61-16.48,24.34-5.58,1.91,5.57-5.3,22.43-13.08,20.96-1.17-1.13,4.36-13.92,5.24-16.13-.46-.86-2.25-.26-3.01,0-4.82,1.58-22.39,18.36-25.86,22.89-.58.76-1.45.95-1.12,2.26h36.75l.75,15.75h-2.24c.54-5.18-3.96-12-9.38-12h-22.5l-1.12,1.12v26.62h19.88c5.02,0,5.73-4.68,6.93-8.11.43-1.22-.39-1.99,1.7-1.64v24c-1.5.18-1.24.16-1.69-.93-.85-2.07-.58-5.22-2.3-7.08-.81-.88-5.16-2.49-6.14-2.49h-17.25l-1.12,1.12v24.75c0,3.5,1.63,5.12,4.95,5.55,6.64.86,20.48.85,25.82-3.29,4.03-3.12,4.85-7.14,7.43-10.42.69-.87,1.41-.4,2.3-.47l-6.37,18h-53.62v-2.25c2.73.84,9.75-.81,9.75-4.13v-55.88ZM42.81,191.08c7.81-2.57,15.19-4.71,22.51-8.61,13.19-7.03,24.36-16.15,34.12-27.38,1.76-2.02,8.21-9.49,8.95-11.3.33-.81,1.72-7.67,1.68-8.48-.41-8.11-9.88-11.09-16.67-10.25-3.86.48-13.16,2.77-15.9,5.47-1.58,1.56-9.51,13.98-11.3,16.82-6.27,9.92-18.95,30.63-22.8,40.95-.35.94-.8,1.71-.59,2.78Z"/>
  <path d="M302.68,126.59c13.09,1.26,24.01,10.32,19.17,24.42-2.52,7.34-8.35,8.99-14.77,11.5-.77.3-1.28-.4-1.02,1.18,7.28,7.57,15.07,25.19,24.46,29.55,2.79,1.29,7.52.97,7.78,3.84h-19.5l-22.89-32.24-7.86-.76v25.88c0,4.26,6.32,5.64,9.75,4.88v2.25h-30c0-3.48,3.99-1.77,6.22-2.4,3.6-1.02,4.1-6.81,4.31-9.94.85-12.71,1.17-35.51-.13-47.94-.31-2.99-.81-7.04-4.19-7.81-2.28-.52-6.24.97-6.22-2.41,11.22.79,23.83-1.07,34.88,0ZM288.05,161.09c13.91,2.29,29.07-8.4,21.42-23.3-4.28-8.34-13.49-7.66-21.42-6.7v30Z"/>
  <path d="M488.88,125.29c47.33-5.23,51.59,69.79,6.53,73.28-46.11,3.57-50.52-68.41-6.53-73.28ZM490.39,129.04c-32.41,2.96-25.09,80.63,11.41,63.92,20.76-9.51,19.15-66.71-11.41-63.92Z"/>
  <path d="M665.88,125.29c47.33-5.23,51.59,69.79,6.53,73.28-46.11,3.57-50.52-68.41-6.53-73.28ZM667.39,129.04c-32.41,2.96-25.09,80.63,11.41,63.92,20.76-9.51,19.15-66.71-11.41-63.92Z"/>
  <path d="M224.15,125.31c47.37-4.9,50.95,69.53,6.52,73.27-46.21,3.88-50.74-68.69-6.52-73.27ZM224.87,129.03c-31.45,3.8-24.52,80.18,11.61,64.11,21.64-9.63,19.24-67.83-11.61-64.11Z"/>
  <path d="M152.3,164.09v25.88c0,4.26,6.32,5.64,9.75,4.88v2.25h-30c0-3.48,3.99-1.77,6.22-2.4,3.85-1.09,4.1-8.04,4.31-11.44.73-11.63,1.39-40.4-.97-50.89-1.3-5.75-8.74-1.24-9.56-5.77h33.38c9.94,0,20.35,9.02,20.65,19.17.53,18.08-19.44,23.09-33.77,18.33ZM152.3,161.09c4.72,1,10.97,1.77,15.25-.88,10.82-6.69,7.26-27.65-5.11-29.14-2.68-.32-8.13-.52-10.14,1.14v28.88Z"/>
  <path d="M417.05,34.34v13.12c0,.42,2.07,4.81-1.44,2.58-.79-.5-.71-8.42-5.51-10.63-.47-.22-4.43-1.32-4.68-1.32h-22.88v27.75h19.88c4.16,0,6.98-5.99,6.38-9.76h2.25v24.01h-2.25c.6-4.72-2.67-10.5-7.88-10.5h-18.38v28.88c0,3.52,16.79,2.88,19.9,2.65,4.69-.34,8.58-1.1,12-4.5,1.66-1.65,6.42-11.46,8.6-9.77l-6,17.99h-54.75c-.09-3.24,3.42-1.87,5.45-2.43,4.31-1.18,4.53-3.52,4.96-7.79,1.25-12.65,1-35.07.13-47.94-.23-3.39-.42-9.05-4.32-9.93-2.29-.52-6.24.97-6.22-2.41h54.75Z"/>
  <path d="M449.3,126.59l.75,15.75c-3.37-1.08-3.11-5.95-5.96-8.66-1.37-1.31-6.21-3.34-7.91-3.34h-19.12v27.75h16.12c3.42,0,6.39-6.6,5.63-9.76h2.25v24.01h-2.25c1.25-2.83-1.93-9.75-4.88-9.75h-16.88v27.38c0,1.73,2.46,4.32,4.28,4.72,2.3.51,6.24-.95,6.22,2.41h-30.75c-.02-3.37,3.93-1.89,6.22-2.41,3.78-.86,4.07-5.9,4.31-9.19.9-12.28,1.33-38.28-.23-50.09-.43-3.28-1.23-5.75-4.72-6.53-1.93-.43-5.65,1.06-5.59-2.29h52.5Z"/>
  <path d="M392.3,126.59v13.12c0,.54,1.32,2.14.75,3.37h-2.23c-.32-2.92-1.29-6.85-3.45-8.94-.78-.75-5.24-3.06-5.94-3.06h-13.12v60.38c0,4.53,9.9,1.82,9.75,5.62h-30v-2.25c2.83.85,9.75-.54,9.75-4.13v-59.62h-13.12c-4.19,0-10.07,7.57-8.63,12.01h-2.24s.75-16.51.75-16.51h57.75Z"/>
  <path d="M357.05,34.34l.75,16.5h-2.24c1.02-4.84-4.57-12-9.38-12h-13.12v59.62c0,3.32,7.02,4.97,9.75,4.13v2.25h-30c.06-3.62,4.3-1.57,6.74-2.64,3.21-1.41,3.57-7.29,3.8-10.45,1.21-17.11-.97-35.65-.03-52.91h-13.88c-4.37,0-9.72,7.53-8.63,12.01h-2.24s.75-16.51.75-16.51h57.75Z"/>
  <path d="M564.8,126.59v2.25c-4.13-.29-10.39-.21-11.2,4.93l.28,55.87c.32.87.83,1.63,1.62,2.13,2.78,1.75,21.32,1,25.04-.3,6.07-2.13,8.01-7.5,10.89-12.39.57-.97-.13-1.89,1.86-1.48l-5.25,19.5h-54.75v-2.25c5.64.38,9.22-.12,9.79-6.34,1.58-17.35-1.22-37.13-.08-54.74-1.18-5.36-5.06-5.28-9.71-4.92v-2.25h31.5Z"/>
  <path d="M229.55,34.34c0,3.45-4.06,1.89-6.34,2.29-2.57.45-4.68,2.5-5.51,4.99l.17,55.76c.32.87.83,1.63,1.62,2.13,2.86,1.81,21.16.95,25.04-.3,5.82-1.87,9.58-7.75,11.25-13.36l2.26-.5-6,19.5h-54.75c0-3.48,3.99-1.77,6.22-2.4,3.72-1.06,4.11-7.43,4.31-10.69.63-10.05,1.38-43.38-.99-51.62-1.72-5.97-8.45-1.12-9.55-5.79h32.25Z"/>
  <path d="M628.55,126.59v2.25c-5.64-.38-9.22.12-9.79,6.34-1.58,17.35,1.22,37.13.08,54.74.94,4.99,5.36,5.29,9.71,4.92v2.25h-30c.72-4.4,7.24-.18,9.36-5.27l.37-58.84c-1.11-5.89-8.97-2.17-9.73-6.39h30Z"/>
  <path d="M293.3,34.34c.02,3.36-3.92,1.91-6.22,2.41-3.96.86-4.07,5.06-4.32,8.43-1.21,16.87.82,35.33.21,52.35.6,7.54,8.92,2.66,10.32,7.3h-30.75c-.02-3.37,3.93-1.89,6.22-2.41,3.78-.86,4.07-5.9,4.31-9.19.9-12.28,1.33-38.28-.23-50.09-.43-3.28-1.23-5.75-4.72-6.53-1.93-.43-5.65,1.06-5.59-2.29h30.75Z"/>
</svg>