<svg viewBox="19.5000075 442.50075000000004 1093.5 328.5" xmlns="http://www.w3.org/2000/svg" data-name="Layer 1" id="Layer_1" style="max-height: 500px" width="1093.5" height="328.5">
  <defs>
    <style>
      .cls-1 {
        fill: #fff;
      }
    </style>
  </defs>
  <path d="M1125,0v1125H0V0h1125ZM378.5,466.94h-68.95v94.44h68.95v-11.99h-55.46v-29.98h44.97v-11.99h-44.97v-28.48h55.46v-11.99ZM409.98,466.94h-13.49v94.44h67.46v-10.87l-1.12-1.12h-52.84v-82.45ZM492.42,466.94h-14.24v94.44h14.24v-94.44ZM582.36,466.94h-75.7v11.99h31.48v82.45h13.49v-82.45h30.73v-11.99ZM666.31,466.94h-68.95v94.44h68.95v-11.99h-55.46v-29.98h44.6c1.82-2.62,1.84-9.29,0-11.99h-44.6v-28.48h55.46v-11.99ZM202.37,731.51c-7.87-9.19-13.39-20.14-16.43-31.91-3.33-12.89-4.31-28.73-3.04-41.91.23-2.35,1.04-9.67,2.66-10.83,1.43-1.02,11.03-1.27,13.97-1.77,12.22-2.1,25.98-8.16,34.92-16.8l.18-138.53c-.39-8.61-6.78-14.91-15.4-15.33l-82.31.11-37.66,56.02c-3.91,5.74-10.43,6.01-16.83,4.97l-44.94-16.9v201.24c0,3.56,7.38,11.62,10.87,11.62h154.02ZM93.43,527.4l31.72-48.46-81.69,33.74c.07,1.08,1.15,1.15,1.85,1.51,12.09,6.14,27.6,9.67,40.11,15.41,2.38.59,6.27-.54,8-2.2ZM435.3,590.08c-51.74,5.29-57.52,81.84-7.18,95.18,30.37,8.05,61.29-10.03,63.53-42.57s-23.12-56.01-56.36-52.61ZM802.56,590.08c-51.79,5.29-57.46,81.95-7.18,95.18,30.07,7.91,60.95-9.62,63.53-41.82,2.75-34.32-22.8-56.79-56.36-53.36ZM1028.91,590.08c-53.61,5.48-57.31,86.71-2.25,96.24,28.9,5.01,56.24-12.78,58.6-42.89,2.7-34.44-22.64-56.8-56.36-53.36ZM323.03,650.57c28.44.32,65.3,4.08,60.63-36.27-1.45-12.57-13.82-23.69-26.53-23.69h-47.59v94.44h13.49v-34.48ZM556.5,590.61h-48.34v94.44h13.49v-34.85l1.12-1.12h23.98l23.23,35.98h15.36l-23.24-36.35c-.21-1.68.25-.86,1.11-1.13,11.98-3.72,18.68-10.57,19.87-23.61,1.67-18.34-7.99-31.46-26.6-33.34ZM670.05,590.61h-75.7v11.99h30.73v82.45h13.49v-81.32l1.12-1.12h29.23l1.12-1.12v-10.87ZM753.25,590.61h-68.95v94.44h13.49v-39.35l1.12-1.12h44.6v-11.99h-45.72v-28.86l1.12-1.12h54.34v-11.99ZM888.91,590.61h-13.49v94.44h66.71v-11.99h-53.21v-82.45ZM970.6,590.61h-13.49v94.44h13.49v-94.44ZM284.7,652.92c-17.54-1.03-33.38-7.77-47.37-18.01-13.08,10.93-29.92,16.73-46.87,17.99-5.08,30.29,1.22,67.08,29.4,83.99,3.49,2.09,14.45,7.39,18.11,7.39,4.97,0,18.57-7.73,22.8-10.95,23.54-17.91,28.84-52.75,23.93-80.4ZM375.69,727.2c2.14-2.11,8.49-.56,10.69,1.29,2.64-3.06,1.87-4.51-1.7-5.78-13.44-4.76-21.27,9.02-9.96,15.21,3.03,1.66,8.88,1.7,9.08,5.94.35,7.33-10.93,3.53-14.28.4l-.66,5.12c6.64,4.75,19.52,4.92,20.59-5.11.35-3.26-1.49-6.8-4.23-8.59-2.17-1.42-14.51-3.56-9.52-8.47ZM420.46,728.51l.44-4.53c-6.43-3.97-18.03-2.91-17.73,6.41.34,10.52,14.4,7.31,14.38,13.48-.02,6.87-11.28,3.93-14.31.37-1.47,5.08-.8,6.06,4.16,7.45,8.66,2.42,16.96-.43,15.27-10.78-1.32-8.09-14.99-5.78-14.22-12.02.59-4.75,9.3-1.88,12.01-.38ZM488.58,724.11c-6.02-4.17-18.66-2.79-18.38,6.16.33,10.75,15.47,7.18,14.75,14.33-.58,5.72-11.64,3.08-14.25-.35-3.63,8.41,8.45,9.38,14.21,7.1,7.1-2.81,7.14-12.2.8-15.76-2.44-1.37-13.8-3.43-9.05-8.23,3.35-3.38,10.59,1.61,11.25,1.14l.67-4.4ZM522.35,724.09c-7.81-5.75-23.63-.48-17.5,10.36,3.14,5.55,14.41,4.13,13.59,10.08-.77,5.61-11.22,3.82-13.65-.26-1.52,1.87-2.36,4-.36,5.56,6.78,5.26,20.47,2.84,19.44-7.36-1-9.89-14.71-7.61-14.7-12.83,0-5.72,9.51-2.63,12.48-1.12l.71-4.43ZM990.83,728.51l.44-4.53c-6.43-3.97-18.03-2.91-17.73,6.41.34,10.52,14.4,7.31,14.38,13.48-.02,6.87-11.28,3.93-14.31.37-1.47,5.08-.8,6.06,4.16,7.45,8.66,2.42,16.96-.43,15.27-10.78-1.32-8.09-14.99-5.78-14.22-12.02.59-4.75,9.3-1.88,12.01-.38ZM356.76,751.75l-11.32-28.03c-.76-1.57-3.98-1.68-5.2-.85-1.44.97-10.12,25.34-11.96,28.88,7.02,1.39,5.82-2.95,8.98-7.13,2.61-.35,9.57-1.26,11.3.71,2.59,2.95.64,8.07,8.19,6.41ZM456.45,722.52h-18.74v29.23h18.74v-4.5h-12.74v-8.99h10.49v-4.5h-10.49v-6.75h12.74v-4.5ZM593.23,722.52c-4.05-.67-9.62.49-13.87,0v29.23h6v-11.24c6.04-1.68,7.81,8.77,11.25,10.86,1.62.98,4.82.12,6.74.37l-8.29-12.32c8.03-3.39,6.86-15.46-1.83-16.91ZM635.58,722.52h-18.74v29.23h18.74v-4.5h-12.74v-8.99h10.49v-4.5h-10.49v-6.75h12.74v-4.5ZM654.21,722.62l-5.89-.1,11.3,28.04c.93,1.64,2.99,1.24,4.68,1.22l12.49-29.26-5.89.1-7.98,20.14-8.71-20.14ZM696.29,722.52h-6v29.23h6v-29.23ZM730.76,722.52h-18.74v29.23h18.74v-4.5h-12.74v-8.99h10.49v-4.5h-10.49v-6.75h12.74v-4.5ZM748.65,722.62l-5.91.29,9.86,28.74h4.29s6.47-18.64,6.47-18.64l5.98,18.01,4.81.66,9.82-29.14-5.9.09-6.47,20.15c-.99-.02-4.33-16.66-5.75-18.99-1.14-1.88-3.97-1.93-5,0l-6.11,18.98-6.1-20.13ZM848.31,722.64l-5.04-.04-12.07,29.13,5.87-.12,3.62-7.25,11.14.61,2.72,6.64,5.87.12-12.11-29.1ZM873.92,751.75h13.87c.33,0,3.71-1.27,4.42-1.58,10.88-4.79,10.88-21.28,0-26.07-.7-.31-4.09-1.58-4.42-1.58h-13.87v29.23ZM916.52,722.64c-.98.04-6.45-1.07-5.85.97l11.59,27.39,4.4.65,12.46-29.13-5.91.09-7.59,20.15c-1.18.92-8.25-18.6-9.11-20.11ZM958.61,722.52h-6v29.23h6v-29.23ZM1026.82,722.52h-18.74v29.23h18.74v-4.5h-12.74v-8.99h10.49v-4.5h-10.49v-6.75h12.74v-4.5ZM544.14,745.75h-6v6h6v-6ZM798.97,745.75h-6v6h6v-6ZM1047.06,745.75h-5.25v6h5.25v-6Z" class="cls-1"/>
  <g>
    <path d="M556.5,590.61c18.61,1.89,28.26,15,26.6,33.34-1.19,13.04-7.89,19.89-19.87,23.61-.86.27-1.32-.55-1.11,1.13l23.24,36.35h-15.36l-23.23-35.98h-23.98l-1.12,1.12v34.85h-13.49v-94.44h48.34ZM554.26,602.6c-9.85-1.32-22.45.98-32.6,0v34.48h33.35c2.45,0,9.17-3.54,10.88-5.61,4.79-5.81,4.61-18.86-1.02-24.11-1.81-1.69-8.2-4.43-10.61-4.76Z"/>
    <path d="M323.03,650.57v34.48h-13.49v-94.44h47.59c12.7,0,25.07,11.12,26.53,23.69,4.67,40.35-32.19,36.59-60.63,36.27ZM323.03,637.82h32.6c.49,0,4.37-1.23,5.18-1.57,11.93-5.05,12.6-24.44,1.73-30.81-1.08-.63-6.81-2.84-7.65-2.84h-31.85v35.23Z"/>
    <polygon points="753.25 590.61 753.25 602.6 698.91 602.6 697.78 603.72 697.78 632.58 743.5 632.58 743.5 644.57 698.91 644.57 697.78 645.69 697.78 685.04 684.29 685.04 684.29 590.61 753.25 590.61"/>
    <polygon points="670.05 590.61 670.05 601.47 668.93 602.6 639.7 602.6 638.57 603.72 638.57 685.04 625.08 685.04 625.08 602.6 594.35 602.6 594.35 590.61 670.05 590.61"/>
    <polygon points="888.91 590.61 888.91 673.05 942.12 673.05 942.12 685.04 875.42 685.04 875.42 590.61 888.91 590.61"/>
    <g>
      <path d="M666.31,466.94v11.99h-55.46v28.48h44.6c1.84,2.71,1.82,9.38,0,11.99h-44.6v29.98h55.46v11.99h-68.95v-94.44h68.95Z"/>
      <polygon points="378.5 466.94 378.5 478.93 323.03 478.93 323.03 507.41 368 507.41 368 519.4 323.03 519.4 323.03 549.38 378.5 549.38 378.5 561.38 309.54 561.38 309.54 466.94 378.5 466.94"/>
      <polygon points="582.36 466.94 582.36 478.93 551.63 478.93 551.63 561.38 538.14 561.38 538.14 478.93 506.66 478.93 506.66 466.94 582.36 466.94"/>
      <polygon points="409.98 466.94 409.98 549.38 462.82 549.38 463.94 550.51 463.94 561.38 396.49 561.38 396.49 466.94 409.98 466.94"/>
      <rect height="94.44" width="14.24" y="466.94" x="478.18"/>
    </g>
    <rect height="94.44" width="13.49" y="590.61" x="957.11"/>
    <path d="M748.65,722.62l6.1,20.13,6.11-18.98c1.02-1.93,3.86-1.88,5,0,1.42,2.33,4.75,18.98,5.75,18.99l6.47-20.15,5.9-.09-9.82,29.14-4.81-.66-5.98-18.01-6.47,18.64h-4.29s-9.86-28.74-9.86-28.74l5.91-.29Z"/>
    <path d="M873.92,751.75v-29.23h13.87c.33,0,3.71,1.27,4.42,1.58,10.88,4.79,10.88,21.28,0,26.07-.7.31-4.09,1.58-4.42,1.58h-13.87ZM879.91,747.25c19.35,2.41,19.35-22.64,0-20.24v20.24Z"/>
    <path d="M593.23,722.52c8.69,1.44,9.86,13.52,1.83,16.91l8.29,12.32c-1.92-.25-5.12.61-6.74-.37-3.44-2.09-5.21-12.55-11.25-10.86v11.24h-6v-29.23c4.24.49,9.82-.67,13.87,0ZM593.43,735.08c1.28-1.29,1.47-6.13-.13-7.39-1.78-1.41-5.67-.4-7.95-.68v9c2.06-.15,6.6.54,8.07-.93Z"/>
    <path d="M356.76,751.75c-7.55,1.65-5.61-3.46-8.19-6.41-1.73-1.97-8.69-1.07-11.3-.71-3.16,4.18-1.95,8.52-8.98,7.13,1.84-3.54,10.51-27.91,11.96-28.88,1.23-.82,4.44-.71,5.2.85l11.32,28.03ZM343.26,730.76c-1.94-.35-1.16.27-1.56,1.06-.54,1.07-3.35,8.27-2.93,8.67h8.24s-3.76-9.74-3.76-9.74Z"/>
    <path d="M848.31,722.64l12.11,29.1-5.87-.12-2.72-6.64-11.14-.61-3.62,7.25-5.87.12,12.07-29.13,5.04.04ZM849.93,740.5l-4.48-10.48-3.75,10.48h8.24Z"/>
    <polygon points="456.45 722.52 456.45 727.02 443.7 727.02 443.7 733.76 454.2 733.76 454.2 738.26 443.7 738.26 443.7 747.25 456.45 747.25 456.45 751.75 437.71 751.75 437.71 722.52 456.45 722.52"/>
    <polygon points="635.58 722.52 635.58 727.02 622.83 727.02 622.83 733.76 633.33 733.76 633.33 738.26 622.83 738.26 622.83 747.25 635.58 747.25 635.58 751.75 616.84 751.75 616.84 722.52 635.58 722.52"/>
    <polygon points="730.76 722.52 730.76 727.02 718.02 727.02 718.02 733.76 728.51 733.76 728.51 738.26 718.02 738.26 718.02 747.25 730.76 747.25 730.76 751.75 712.03 751.75 712.03 722.52 730.76 722.52"/>
    <polygon points="1026.82 722.52 1026.82 727.02 1014.07 727.02 1014.07 733.76 1024.57 733.76 1024.57 738.26 1014.07 738.26 1014.07 747.25 1026.82 747.25 1026.82 751.75 1008.08 751.75 1008.08 722.52 1026.82 722.52"/>
    <path d="M522.35,724.09l-.71,4.43c-2.97-1.51-12.47-4.59-12.48,1.12,0,5.22,13.7,2.94,14.7,12.83,1.03,10.2-12.65,12.62-19.44,7.36-2.01-1.56-1.16-3.68.36-5.56,2.43,4.08,12.88,5.87,13.65.26.82-5.96-10.45-4.53-13.59-10.08-6.13-10.83,9.69-16.11,17.5-10.36Z"/>
    <path d="M375.69,727.2c-4.99,4.92,7.35,7.06,9.52,8.47,2.75,1.8,4.58,5.33,4.23,8.59-1.08,10.04-13.95,9.87-20.59,5.11l.66-5.12c3.34,3.14,14.63,6.94,14.28-.4-.2-4.24-6.05-4.28-9.08-5.94-11.31-6.19-3.48-19.96,9.96-15.21,3.57,1.26,4.35,2.72,1.7,5.78-2.2-1.85-8.54-3.41-10.69-1.29Z"/>
    <path d="M488.58,724.11l-.67,4.4c-.66.47-7.9-4.52-11.25-1.14-4.76,4.79,6.6,6.85,9.05,8.23,6.33,3.56,6.29,12.95-.8,15.76-5.76,2.28-17.84,1.31-14.21-7.1,2.62,3.42,13.67,6.07,14.25.35.72-7.15-14.42-3.58-14.75-14.33-.27-8.96,12.37-10.33,18.38-6.16Z"/>
    <path d="M420.46,728.51c-2.71-1.49-11.42-4.37-12.01.38-.77,6.25,12.9,3.93,14.22,12.02,1.68,10.35-6.61,13.2-15.27,10.78-4.96-1.38-5.63-2.37-4.16-7.45,3.03,3.56,14.29,6.49,14.31-.37.02-6.18-14.04-2.96-14.38-13.48-.3-9.32,11.3-10.38,17.73-6.41l-.44,4.53Z"/>
    <path d="M990.83,728.51c-2.71-1.49-11.42-4.37-12.01.38-.77,6.25,12.9,3.93,14.22,12.02,1.68,10.35-6.61,13.2-15.27,10.78-4.96-1.38-5.63-2.37-4.16-7.45,3.03,3.56,14.29,6.49,14.31-.37.02-6.18-14.04-2.96-14.38-13.48-.3-9.32,11.3-10.38,17.73-6.41l-.44,4.53Z"/>
    <path d="M654.21,722.62l8.71,20.14,7.98-20.14,5.89-.1-12.49,29.26c-1.7.03-3.75.42-4.68-1.22l-11.3-28.04,5.89.1Z"/>
    <path d="M916.52,722.64c.85,1.51,7.93,21.03,9.11,20.11l7.59-20.15,5.91-.09-12.46,29.13-4.4-.65-11.59-27.39c-.61-2.04,4.87-.92,5.85-.97Z"/>
    <rect height="29.23" width="6" y="722.52" x="690.29"/>
    <rect height="29.23" width="6" y="722.52" x="952.61"/>
    <rect height="6" width="6" y="745.75" x="538.14"/>
    <rect height="6" width="6" y="745.75" x="792.97"/>
    <rect height="6" width="5.25" y="745.75" x="1041.8"/>
    <path d="M554.26,602.6c2.4.32,8.8,3.07,10.61,4.76,5.63,5.25,5.81,18.29,1.02,24.11-1.71,2.07-8.43,5.61-10.88,5.61h-33.35v-34.48c10.16.98,22.75-1.32,32.6,0Z" class="cls-1"/>
    <g>
      <path d="M435.3,590.08c33.23-3.4,58.7,18.61,56.36,52.61s-33.16,50.62-63.53,42.57c-50.34-13.34-44.56-89.89,7.18-95.18ZM436.79,602.06c-42.24,5.1-40.73,78.61,12.45,72.41,40.85-4.77,38.84-78.6-12.45-72.41Z"/>
      <path d="M436.79,602.06c51.3-6.19,53.3,67.65,12.45,72.41-53.19,6.2-54.69-67.32-12.45-72.41Z" class="cls-1"/>
    </g>
    <g>
      <path d="M1028.91,590.08c33.72-3.44,59.05,18.92,56.36,53.36-2.36,30.11-29.71,47.89-58.6,42.89-55.06-9.54-51.37-90.77,2.25-96.24ZM1030.4,602.06c-39.13,4.72-38.87,67.24-1.51,72.3,57.41,7.77,56.29-78.9,1.51-72.3Z"/>
      <path d="M1030.4,602.06c54.77-6.61,55.89,80.07-1.51,72.3-37.35-5.06-37.62-67.58,1.51-72.3Z" class="cls-1"/>
    </g>
    <path d="M323.03,637.82v-35.23h31.85c.84,0,6.57,2.21,7.65,2.84,10.88,6.37,10.21,25.76-1.73,30.81-.8.34-4.68,1.57-5.18,1.57h-32.6Z" class="cls-1"/>
    <path d="M879.91,747.25v-20.24c19.35-2.41,19.35,22.64,0,20.24Z" class="cls-1"/>
    <path d="M593.43,735.08c-1.47,1.47-6.01.78-8.07.93v-9c2.28.28,6.17-.72,7.95.68,1.6,1.26,1.41,6.1.13,7.39Z" class="cls-1"/>
    <path d="M343.26,730.76l3.76,9.73h-8.24c-.42-.4,2.39-7.6,2.93-8.67.4-.79-.39-1.41,1.56-1.06Z" class="cls-1"/>
    <polygon points="849.93 740.5 841.69 740.5 845.45 730.02 849.93 740.5" class="cls-1"/>
    <g>
      <path d="M802.56,590.08c33.55-3.43,59.11,19.04,56.36,53.36-2.58,32.2-33.47,49.73-63.53,41.82-50.29-13.23-44.61-89.89,7.18-95.18ZM804.05,602.06c-42.24,5.1-40.73,78.61,12.45,72.41,14.57-1.7,25.58-14.24,28-28.21,4.57-26.35-13.15-47.49-40.45-44.2Z"/>
      <path d="M804.05,602.06c27.3-3.29,45.02,17.84,40.45,44.2-2.42,13.97-13.43,26.51-28,28.21-53.19,6.2-54.69-67.32-12.45-72.41Z" class="cls-1"/>
    </g>
    <g>
      <path d="M202.37,731.51H48.34c-3.49,0-10.87-8.06-10.87-11.62v-201.24l44.94,16.9c6.4,1.04,12.92.77,16.83-4.97l37.66-56.02,82.31-.11c8.62.41,15.01,6.71,15.4,15.33l-.18,138.53c-8.94,8.63-22.7,14.7-34.92,16.8-2.94.5-12.54.75-13.97,1.77-1.63,1.16-2.44,8.48-2.66,10.83-1.27,13.18-.29,29.01,3.04,41.91,3.04,11.77,8.56,22.72,16.43,31.91ZM213.43,557.44c1.46-1.7,1.43-24.09.06-26.3-.3-.49-.45-1.01-1.11-1.14l-99.96.26c-.71.63-1.12,1.51-1.32,2.42-.61,2.8-.48,23.31.76,24.75l1.85.75,95.81.22,3.91-.97ZM63.33,591.36h149.15c1.3,0,1.94-4.49-.37-5.62l-147.88-.22c-2.38.44-2.82,5.25-.9,5.84ZM65,618.51c-3.15.59-3.79,3.6-1.74,5.9l147.01.71c5.61-.74,4.03-7.47-1.5-6.82l-143.77.2ZM63.33,652.07c-1.31,0-1.89,5.11,0,6h104.93c1.68-1.34,1.75-4.55,0-6H63.33ZM164.52,685.04h-100.43c-2.37,0-2.37,6.75,0,6.75h100.43c.31,0,1.67-.87,1.93-1.27v-4.2c-.27-.42-1.5-1.2-1.93-1.27Z"/>
      <path d="M93.43,527.4c-1.73,1.65-5.63,2.79-8,2.2-12.5-5.75-28.02-9.28-40.11-15.41-.71-.36-1.78-.43-1.85-1.51l81.69-33.74-31.72,48.46Z"/>
      <path d="M213.43,557.44l-3.91.97-95.81-.22-1.85-.75c-1.25-1.45-1.37-21.95-.76-24.75.2-.91.61-1.79,1.32-2.42l99.96-.26c.66.13.81.66,1.11,1.14,1.37,2.21,1.4,24.6-.06,26.3ZM207.61,535.89h-89.94v15.74h89.94v-15.74Z" class="cls-1"/>
      <path d="M65,618.51l143.77-.2c5.53-.65,7.11,6.08,1.5,6.82l-147.01-.71c-2.05-2.3-1.41-5.31,1.74-5.9Z" class="cls-1"/>
      <path d="M63.33,591.36c-1.92-.6-1.48-5.4.9-5.84l147.88.22c2.32,1.13,1.68,5.62.37,5.62H63.33Z" class="cls-1"/>
      <path d="M164.52,685.04c.43.07,1.66.85,1.93,1.27v4.2c-.25.4-1.62,1.27-1.93,1.27h-100.43c-2.37,0-2.37-6.75,0-6.75h100.43Z" class="cls-1"/>
      <path d="M63.33,652.07h104.93c1.75,1.45,1.68,4.65,0,6H63.33c-1.89-.88-1.31-6,0-6Z" class="cls-1"/>
      <rect height="15.74" width="89.94" y="535.89" x="117.67"/>
      <g>
        <path d="M284.7,652.92c4.9,27.65-.39,62.49-23.93,80.4-4.22,3.21-17.82,10.95-22.8,10.95-3.66,0-14.63-5.3-18.11-7.39-28.18-16.91-34.48-53.7-29.4-83.99,16.96-1.25,33.79-7.06,46.87-17.99,13.99,10.24,29.83,16.98,47.37,18.01ZM218.41,712.47c5.12,3.86,8.54,4.86,13.95.7,11.6-8.91,21.95-24.36,34.03-33.43,7.62-8.81-1.7-21.16-12.25-16l-28.17,28.03c-6.48-11.31-23.27-4.43-19.52,7.55.48,1.53,10.19,11.8,11.96,13.14Z"/>
        <path d="M218.41,712.47c-1.77-1.34-11.48-11.61-11.96-13.14-3.75-11.98,13.04-18.86,19.52-7.55l28.17-28.03c10.55-5.17,19.87,7.19,12.25,16-12.08,9.06-22.43,24.52-34.03,33.43-5.41,4.16-8.83,3.16-13.95-.7ZM257.61,669.43l-29.78,29.47c-5.04,2.34-7.21-6.12-11.67-6.37-2.97-.17-4.06,2.79-2.92,5.24.32.7,10.17,10.55,10.87,10.87,1.26.58,2.47.67,3.72,0l34.11-34.11c1.51-3.25-.85-6.14-4.33-5.1Z" class="cls-1"/>
        <path d="M257.61,669.43c3.48-1.03,5.83,1.85,4.33,5.1l-34.11,34.11c-1.25.67-2.46.58-3.72,0-.7-.32-10.55-10.17-10.87-10.87-1.14-2.46-.05-5.41,2.92-5.24,4.46.25,6.63,8.71,11.67,6.37l29.78-29.47Z"/>
      </g>
    </g>
  </g>
</svg>