<?xml version="1.0" encoding="UTF-8"?>
<svg id="Layer_1" data-name="Layer 1" xmlns="http://www.w3.org/2000/svg" viewBox="0 0 659.78 232.08">
  <path d="M133.34,39.76l-23.25,28.33-30.74,44.05c6.48.21,11.18-2.62,18-.75s16.99,10.65,17.19,18.07c.03,1.02-.21,6.31-.34,7.15-.18,1.14-10.15,17.12-11.59,19.04-2.93,3.93-12.1,12.08-16.16,15.34-15.47,12.45-34.64,20.98-54.6,22.46-1.5.96-9.23,20.6-11.88,24.31-2,2.8-5.78,5.15-7.07.51-1.17-4.23,9.65-19.92,10.9-25.15-4.77-1.95-8.28-2.93-12.3-6.38-17.23-14.81-12.86-35.58-1.44-52.4,7.29-10.74,16.49-20.69,25.78-29.71-9.79-7.44-4.28-20.66.63-29.38,5.69-10.1,13.79-18.9,25.46-21.79,8.08-2,12.03.59,19.67,2.05,1.32-5.14,4.16-24.24,12.48-16.99,6.14,5.36,2.72,13.04.3,19.64-2.94,8.01-9.09,17.96-13.66,24.59-2.1,3.04-5.05,7.37-8.87,8-1.86-2.03,4.85-21.64,5.89-25.27.18-1.11-.8-1.69-1.77-1.77s-10.05,2.8-11.6,3.44c-10.76,4.4-20.64,17.68-23.26,28.86,6.22,1.5,10.53-4.39,15.72-5.65,2.09-.51,3.81-.08,5.61-.39,3.08-.53,9.09-4.06,7.87,2.6-1.42,7.76-8.96,9.83-14.14,13.63-14.72,10.82-41.63,38.03-44.12,56.37-1.85,13.61,4.88,18.88,17.81,18.6,6.33-9.5,10.75-20.15,16.61-29.92,4.62-7.68,10.21-15.39,15.95-22.3.83-1,1.01-2.38,1.92-3.33-3.07.44-4.47.03-6.73-2.24,1.58-2.73,4.44-2.55,6.67-3.82,10.14-5.78,13.16-15.92,20.54-24.53-.36-5.29.35-2.38,2.81-4.61,4.57-4.16,12.79-18.69,17.24-24.6,8.14-10.79,16.88-21.24,25.47-31.69l-6-.37v-2.24s8.26-.37,8.26-.37c6.79-7.54,13.79-16.21,21.73-22.52,3.37-2.68,12.02-9.07,16.06-8.6,11.31,1.31,4.12,16.81-.74,21.67-1.71,1.72-4.18,3.72-6.19,1.21l5.05-13.61c.42-1.5-.66-1.18-1.66-.9-8.54,2.4-19.59,16.96-26.02,23.11h34.5v13.12c0,.16,1.12.85.75,1.12l-2.19-.04c-.38-3.45-3.03-10.45-7.18-10.45h-23.62v26.25h18.38c3.9,0,5.37-5.22,6.29-7.99.39-1.18-.66-2.13,1.58-1.76v23.25c-2.08.35-1.27-.42-1.7-1.64-.75-2.15-2.2-8.11-5.43-8.11h-19.12v27.38c0,.13,1.16,1.32,1.51,1.49,1.74.81,19.95.66,22.54.06,6.78-1.57,7.83-7.76,11.15-11.96.69-.87,1.41-.4,2.3-.47l-5.25,16.5h-51v-2.25c2.34.53,9-.19,9-3.38v-52.88ZM39.59,178.5c10.82-1.09,20.43-6.46,29.48-12.13,8.24-5.17,28.84-22.74,32.36-31.39.22-.54,1.81-7.37,1.81-7.84.06-7.73-9.23-9.83-15.31-9.4-1.77.13-7.56.7-8.87.97-.35.07-5.86,3.29-6.13,3.52-.78.63-9.43,13.55-10.69,15.56-8.21,12.97-14.89,27.46-22.65,40.72Z"/>
  <path d="M283.72,117.76c11.77,1.12,22.59,9.56,17.98,22.48-2.46,6.9-8.8,9.71-15.35,11.64,6.91,7.15,14.62,25,23.49,29.01,2.66,1.2,7.1.74,7.26,3.62h-17.62l-22.28-31.33-7.34-.17v24.38c0,.68,1.81,3.69,2.57,4.18,2.58,1.68,7.02-.87,7.18,2.95h-28.5v-2.25c6.16.45,8.63-.16,9.55-6.57,1.54-10.66.98-35.06.23-46.34-.5-7.51-1.38-10.13-9.79-9.34v-2.25c10.51.73,22.28-.99,32.63,0ZM269.84,150.01c10.61.8,22.04-2.8,21.8-15.39-.23-11.88-12.01-14.77-21.8-12.36v27.75Z"/>
  <path d="M457.93,116.46c44.66-5.32,48.95,66.17,6.53,69.53-42.96,3.4-47.21-64.68-6.53-69.53ZM457.15,120.18c-22.3,3.78-21.83,58.22,0,61.89,15.43,2.6,24.42-8.28,25.68-22.71,1.53-17.4-2.18-43.16-25.68-39.19Z"/>
  <path d="M623.68,116.46c47.66-5.67,48.17,73.19,1.3,69.53-39.09-3.05-38.94-65.05-1.3-69.53ZM623.67,120.2c-23.32,3.48-22.04,57.35-1.36,61.72,15.73,3.33,24.47-7.36,26.28-21.8,2.19-17.45-1.6-43.4-24.92-39.92Z"/>
  <path d="M209.68,116.46c44.15-5.26,48.23,66.25,6.53,69.53-43.52,3.42-47.87-64.6-6.53-69.53ZM208.9,120.18c-23.44,4-21.57,58.36-.75,61.89,24.47,4.16,28.67-22.29,25.61-40.61-2.24-13.43-9.83-23.85-24.86-21.29Z"/>
  <path d="M142.34,153.01v22.88c0,.69,1.18,4.25,1.83,4.92,2.56,2.68,7.62-.24,7.92,3.7h-28.5c-.09-3.2,3.39-1.93,5.46-2.41,3.98-.93,4.07-4.99,4.32-8.43.85-11.82,1.25-35.77-.12-47.2-.35-2.91-1.03-5.56-4.2-6.3-2.07-.48-5.55.79-5.46-2.41h31.12c1.64,0,7.54,1.86,9.3,2.7,13.86,6.61,13.32,27.72-1.59,32.76-6.65,2.25-13.4,1.38-20.09-.21ZM147.45,121.7c-1.34.11-4.58.52-5.01,1.78.79,7.44-1.41,18.43-.1,25.4.45,2.37,7.06,2.8,9.29,2.58,15.85-1.6,15.35-31.42-4.18-29.76Z"/>
  <path d="M390.59,31.51l.75,14.25h-2.24c.49-3.19-2.96-10.5-6.38-10.5h-24.38v26.25h19.12c3.28,0,6.74-6.58,5.63-9.76h2.25v23.26h-2.25c.85-3.38-1.72-9.75-5.63-9.75h-19.12v25.88c0,.97,2.14,3.12,3.39,3.36,3.01.59,16.83.38,20.06-.17,3.62-.61,6.53-3.5,8.79-6.21,1.12-1.35,3.94-7.94,6.02-6.35l-6.37,16.49h-50.62c-.09-3.2,3.4-1.92,5.46-2.41,3.87-.91,4.06-4.37,4.32-7.68,1.23-15.81-.83-33.36-.21-49.35-.64-7.56-8.19-2.74-9.57-7.3h51Z"/>
  <path d="M421.34,117.76l.75,15c-3.22-.84-3.12-5.71-5.59-8.28-.85-.88-4.38-2.96-5.29-2.96h-19.88v26.25h14.62c3.53,0,5.96-5.86,5.63-9h2.25v22.5h-2.25c.83-2.39-1.57-9-4.13-9h-16.12v26.62c0,2.87,6.7,4.03,9,3.38v2.25h-27.75v-2.25c4.5.52,7.9-.07,8.96-4.92-1.17-16.54,1.7-35.51.09-51.75-.53-5.33-4.2-6.1-9.05-5.58v-2.25h48.75Z"/>
  <path d="M335.09,47.26c-2.08.35-1.27-.42-1.7-1.64-.88-2.51-3.46-9.61-6.93-9.61h-14.62v52.12c0,.75,1.3,5.64,1.9,6.35,2.45,2.88,7.54-.24,7.85,3.77h-27.75v-2.25c3.39.94,9-.82,9-4.88v-55.12h-13.88c-.53,0-3.86,2.28-4.47,3.03-1.47,1.79-1.86,4.34-2.57,6.46-.39,1.17.66,2.14-1.58,1.76v-14.62l1.12-1.12h52.5l1.12,1.12v14.62Z"/>
  <path d="M367.34,117.76l.75,15.75c-2.84.24-1.96-2.94-2.62-4.5-.96-2.29-4.06-6.74-6.76-6.74h-13.88v54.38c0,.95,1.57,4.28,2.57,4.93,2.6,1.67,7.01-.86,7.18,2.95h-28.5c.31-3.95,5.35-1.01,7.92-3.7.57-.59,1.83-3.59,1.83-4.17v-54.38h-14.62c-2.85,0-7.55,8.21-6.38,11.26h-2.24c-.67-1.42.75-3.45.75-4.13v-11.62h54Z"/>
  <path d="M215.09,31.51c-1.22,4.61-9.58-.1-11.09,6.53l.17,53.53c.17.6.36,1.14.92,1.49,1.99,1.25,20.32.97,23.36.18,6.02-1.57,8.27-7.58,11.02-12.26.57-.97-.13-1.89,1.86-1.48l-5.25,18.75h-51v-2.25c4.84.52,8.52-.25,9.05-5.58,1.63-16.47-1.26-35.73-.11-52.51-.53-4.39-5.28-4.44-8.94-4.17v-2.25h30Z"/>
  <path d="M530.09,117.76c-1.22,4.61-9.58-.1-11.09,6.53l.17,53.53c.17.6.36,1.14.92,1.49,1.99,1.25,20.32.97,23.36.18,6.02-1.57,8.27-7.58,11.02-12.26.57-.97-.13-1.89,1.86-1.48l-5.25,18.75h-51v-2.25c4.84.52,8.52-.25,9.05-5.58,1.63-16.47-1.26-35.73-.11-52.51-.53-4.39-5.28-4.44-8.94-4.17v-2.25h30Z"/>
  <path d="M274.34,31.51v2.25c-5.43-.17-8.48-.51-9.03,5.59-1.52,16.62,1.15,35.62.1,52.5.53,4.39,5.28,4.44,8.94,4.17v2.25h-27.75v-2.25c4.5.52,7.9-.07,8.96-4.92-1.06-16.41,1.55-34.83.08-50.99-.52-5.74-3.61-6.76-9.04-6.34v-2.25h27.75Z"/>
  <path d="M589.34,117.76v2.25c-5.43-.17-8.48-.51-9.03,5.59-1.52,16.62,1.15,35.62.1,52.5.53,4.39,5.28,4.44,8.94,4.17v2.25h-27.75v-2.25c4.5.52,7.9-.07,8.96-4.92-1.06-16.41,1.55-34.83.08-50.99-.52-5.74-3.61-6.76-9.04-6.34v-2.25h27.75Z"/>
  <path d="M404.09,211.51c-3.36,3.59,1.18,9.02,2.24,13.13.94.98.84-.47,1.1-1.15,1.21-3.18,2.91-6.52.75-9.71-.91-1.35-2.45-1.01-2.59-2.27h8.25c-2.83,2.87-.02,8.39,1.31,11.84.36.94-.34,1.98,1.31,1.65l4.09-11.66-2.2-1.83h6c-4.33,5.65-5.84,13.53-8.26,20.24-1.69.31-1.19-.08-1.67-.95-.69-1.28-3.32-10.3-3.95-10.3-1.12.76-3.45,13.28-5.62,11.26-2.26-6.52-3.75-14.65-8.25-19.88l7.5-.36Z"/>
  <path d="M506.84,231.76l3-1.88v-16.88l-2.99-.76v-.74s13.87,0,13.87,0c.75,0,4.58,2.8,5.22,3.78,2.61,3.95,2.2,10.43-1.08,13.87-.69.72-4.23,2.61-4.89,2.61h-13.12ZM513.59,230.26c13.49,2.3,13.48-19.56,0-17.25v17.25Z"/>
  <path d="M277.72,211.51c5.51,1.17,4.81,9.01-.34,10.87l8.22,9.38c-7.9,1.92-7.6-5-12.39-8.99-2.08-.84-.8,5.51-1.13,6.39l2.27,2.6h-8.99c-.2-1.34,3-.68,3-1.87v-16.88l-2.99-.76v-.74c3.61.52,9.03-.71,12.37,0ZM272.1,221.25c7.3-.45,7.7-8.92,0-8.25v8.25Z"/>
  <path d="M156.59,211.51v4.5s-2.72-2.9-2.72-2.9l-7.04-.1v7.07c.11.81,3.93.54,4.74.29,1.87-.57,1.31-2.63,2.75-2.86v7.49s-1.6-2.89-1.6-2.89l-5.9-.11v8.26c2.14-.25,5,.46,6.99-.14s1.83-3.84,4.26-3.6l-1.5,5.24h-16.5c.48-1.88,2.78-.3,3.05-2.6.56-4.81-.54-10.7-.02-15.66l-3.03-2h16.5Z"/>
  <path d="M310.34,211.51v4.5s-2.72-2.9-2.72-2.9l-7.04-.1v7.07c.11.81,3.93.54,4.74.29,1.87-.57,1.31-2.63,2.75-2.86v7.49s-1.6-2.89-1.6-2.89l-5.9-.11v8.26c2.14-.25,5,.46,6.99-.14s1.83-3.84,4.26-3.6l-1.5,5.24h-16.5c.48-1.88,2.78-.3,3.05-2.6.56-4.81-.54-10.7-.02-15.66l-3.03-2h16.5Z"/>
  <path d="M627.59,211.51v4.5s-2.72-2.9-2.72-2.9l-7.04-.1v7.07c.11.81,3.93.54,4.74.29,1.87-.57,1.31-2.63,2.75-2.86v7.49s-1.6-2.89-1.6-2.89l-5.9-.11v8.26c2.14-.25,5,.46,6.99-.14s1.83-3.84,4.26-3.6l-1.5,5.24h-16.5c.48-1.88,2.78-.3,3.05-2.6.56-4.81-.54-10.7-.02-15.66l-3.03-2h16.5Z"/>
  <path d="M385.34,211.51l.75,4.5c-2.35.48-1.37-2.22-3.51-2.85-2-.6-4.84.1-6.99-.14-1.5,7.95,3.11,10.63,8.25,4.5v7.12c-1.35.49-1.42-2.06-2.73-2.5-1.54-.52-3.83.06-5.51-.12l1.21,8.3c2.02-.27,4.65.38,6.52-.18,1.98-.6,1.83-3.84,4.26-3.6l-1.5,5.24h-16.5l3.03-2c-.52-4.96.58-10.85.02-15.66-.27-2.3-2.57-.71-3.05-2.6h15.75Z"/>
  <path d="M488.08,211.51c3.26,6.73,4.72,15.42,10.51,20.24h-9s2.29-1.94,2.29-1.94c-.78-4.33-2.35-4.45-6.46-4.1-4.37.38-5.66,3.56-1.83,6.03h-6.75c4.96-5.1,5.93-13.74,9.57-19.27.47-.71-.09-1.35,1.67-.96ZM487.34,217.5c-1.95-.34-1.16.28-1.56,1.07-.35.69-2.41,5.48-2.18,5.68h6s-2.26-6.75-2.26-6.75Z"/>
  <path d="M71.09,211.51c2.72,6.69,4.76,15.1,9.76,20.24h-8.25s2.3-1.92,2.3-1.92l-1.67-3.95-7.76.61-1.09,3.31,2.22,1.94h-7.5c5.69-4.35,6.36-13.25,9.93-18.94.59-.94.69-1.58,2.07-1.3ZM71.84,224.25c.46-1.21-2.05-7.45-2.99-6.74l-2.26,6.74h5.24Z"/>
  <path d="M103.34,211.5v6.75c-1.66-1.08-1.87-4.45-4.29-5.12-1.39-.39-4.79-.12-4.77,1.75.06,5.66,13.69,5.54,10.17,13.86-2.07,4.9-9.08,2.23-13.1,3.02v-6.75c2.37-.41,1.33,2.22,2.64,3.73,1.92,2.21,7.28,2.47,7.81-1.09.35-4.74-13.31-5.48-10.07-13.12,1.98-4.65,7.84-2.31,11.6-3.02Z"/>
  <path d="M180.59,211.5v6.75c-1.66-1.08-1.87-4.45-4.29-5.12-1.39-.39-4.79-.12-4.77,1.75.06,5.66,13.69,5.54,10.17,13.86-2.07,4.9-9.08,2.23-13.1,3.02v-6.75c2.37-.41,1.33,2.22,2.64,3.73,1.92,2.21,7.28,2.47,7.81-1.09.35-4.74-13.31-5.48-10.07-13.12,1.98-4.65,7.84-2.31,11.6-3.02Z"/>
  <path d="M599.84,211.5v6.75c-2.42.47-1.06-1.85-2.19-3.43-1.77-2.48-7.58-2.58-7.58.81,0,3.7,15.33,5.97,10.1,13.83-2.68,4.02-8.46,1.44-12.32,2.29v-6.75c1.68,1.12,1.83,4.39,4.28,5.1,3.63,1.06,7.57-.91,4.77-4.8-2.05-2.85-13.14-4.69-8.63-11.52,2.59-3.93,7.82-1.47,11.57-2.3Z"/>
  <path d="M206.09,211.5v6.75c-2.63-3.04-3.1-6.77-8.3-4.92l-.54,4.03c14.2,5.89,14.05,16.23-3.16,14.4v-6.75c1.67.58,1.37,2.57,2.58,3.79,2.19,2.19,7.85,1.94,7.77-1.28-.11-4.21-14.53-6.15-9.53-14.05,2.22-3.5,7.85-1.1,11.17-1.95Z"/>
  <path d="M128.84,211.5v6.75c-2.63-3.04-3.1-6.77-8.3-4.92l-.54,4.03c14.2,5.89,14.05,16.23-3.16,14.4v-6.75c1.67.58,1.37,2.57,2.58,3.79,2.19,2.19,7.85,1.94,7.77-1.28-.11-4.21-14.53-6.15-9.53-14.05,2.22-3.5,7.85-1.1,11.17-1.95Z"/>
  <path d="M329.09,211.51l-2.21,1.83,5.22,12.41c.7.53,5.64-10.26,5.13-12.19-.18-.66-1.71-1.81-1.38-2.05h6.75c-5.34,4.89-7.33,13.48-9.76,20.24-1.35.29-1.48-.4-2.12-1.25-3.82-4.97-4.33-14.91-9.87-18.63l8.25-.36Z"/>
  <path d="M545.84,211.51l-2.28,2.56,4.91,11.68c1.56.33,1.03-.63,1.45-1.51,1.65-3.45,2.73-7.27,4.21-10.8l-2.29-1.93h6.75c-5.08,5.15-6.59,13.67-9.76,20.24-1.76.39-1.2-.25-1.67-.96-3.72-5.66-4.41-14.96-10.32-18.91l9-.36Z"/>
  <path d="M570.59,213.01c-.19-.28-3.15-.1-3-1.49l9,.37c.02.57-2.05.67-2.65,1.86s-.67,13.77-.22,15.25c.58,1.88,2.62,1.31,2.86,2.76h-8.99c-.19-1.33,3-1.33,3-1.49v-17.25Z"/>
  <path d="M357.59,230.26c.19.28,3.15.1,3,1.49l-9-.37c-.02-.57,2.05-.67,2.65-1.86s.67-13.77.22-15.25c-.58-1.88-2.62-1.31-2.86-2.76h8.99c.19,1.33-3,1.33-3,1.49v17.25Z"/>
</svg>